<?xml version="1.0" encoding="utf-8"?>
<!-- Generator: Adobe Illustrator 23.0.1, SVG Export Plug-In . SVG Version: 6.00 Build 0)  -->
<svg version="1.1" id="Camada_1" xmlns="http://www.w3.org/2000/svg" xmlns:xlink="http://www.w3.org/1999/xlink" x="0px" y="0px"
	 viewBox="0 0 31 31" style="enable-background:new 0 0 31 31;" xml:space="preserve">
<style type="text/css">
	.st0{fill-rule:evenodd;clip-rule:evenodd;}
</style>
<path d="M28.8,2.04c-0.87-0.88-2.03-1.37-3.26-1.38L4.95,0.5c-0.01,0-0.02,0-0.04,0c-2.54,0-4.61,2.05-4.63,4.59L0.13,25.68
	c-0.01,1.23,0.46,2.4,1.33,3.28c0.87,0.88,2.03,1.37,3.26,1.38l9.86,0.08l0.08-11.08l-3.41-0.03l0.02-2.68l3.41,0.03l0.04-4.63
	c0.01-1.04,0.42-2.02,1.17-2.75s1.73-1.12,2.77-1.12l3.9,0.03l-0.02,2.68l-3.05-0.02c-0.01,0-0.01,0-0.02,0
	c-1.13,0-2.06,0.92-2.07,2.05l-0.03,3.78l4.9,0.04L21.8,19.4l-4.45-0.03l-0.09,11.08l8.04,0.06c0.01,0,0.02,0,0.04,0
	c1.22,0,2.37-0.47,3.24-1.33c0.88-0.87,1.37-2.03,1.38-3.26l0.16-20.58C30.14,4.09,29.67,2.92,28.8,2.04z M25.34,28.07
	c-0.01,0-0.01,0-0.02,0l-5.61-0.04l0.05-6.21l4.08,0.03l1.32-7.54l-5.34-0.04l0.01-0.98l5.12,0.04l0.06-7.55l-6.33-0.05
	c-0.02,0-0.03,0-0.05,0c-1.67,0-3.25,0.65-4.44,1.82c-1.21,1.19-1.88,2.77-1.89,4.46l-0.02,2.19l-3.41-0.03l-0.06,7.55l3.41,0.03
	l-0.05,6.21l-7.43-0.06c-0.58,0-1.13-0.24-1.55-0.66c-0.41-0.42-0.64-0.97-0.63-1.56L2.72,5.11c0.01-1.2,0.99-2.18,2.19-2.18
	c0.01,0,0.01,0,0.02,0l20.58,0.16c0.58,0,1.13,0.24,1.55,0.66c0.41,0.42,0.64,0.97,0.63,1.56l-0.16,20.58
	C27.53,27.09,26.55,28.07,25.34,28.07z"/>
</svg>
