<?xml version="1.0" encoding="utf-8"?>
<!-- Generator: Adobe Illustrator 23.0.1, SVG Export Plug-In . SVG Version: 6.00 Build 0)  -->
<svg version="1.1" id="Camada_1" xmlns="http://www.w3.org/2000/svg" xmlns:xlink="http://www.w3.org/1999/xlink" x="0px" y="0px"
	 viewBox="0 0 31 31" style="enable-background:new 0 0 31 31;" xml:space="preserve">
<style type="text/css">
	.st0{fill-rule:evenodd;clip-rule:evenodd;}
</style>
<path d="M0.64,25.09c2.81,1.78,6.07,2.72,9.45,2.72c4.94,0,9.46-1.9,12.74-5.34c3.14-3.3,4.87-7.73,4.78-12.22
	c1.19-1.02,2.59-2.96,2.59-4.86c0-0.73-0.79-1.19-1.43-0.82c-1.12,0.66-2.14,0.83-3.19,0.53c-2.14-2.09-5.33-2.53-8.01-1.08
	c-2.35,1.26-3.65,3.57-3.53,6.1C10.07,9.65,6.41,7.66,3.85,4.57C3.44,4.07,2.64,4.13,2.31,4.7C1.08,6.8,1.09,9.25,2.16,11.22
	c-0.51,0.09-0.82,0.52-0.82,0.98c0,1.98,0.89,3.8,2.33,5.05c-0.27,0.26-0.36,0.64-0.24,0.98c0.63,1.9,2.06,3.38,3.85,4.12
	c-1.94,0.93-4.09,1.24-6.01,1C0.27,23.22-0.22,24.55,0.64,25.09L0.64,25.09z M10.34,22.67c0.71-0.54,0.33-1.68-0.56-1.7
	c-1.57-0.03-2.99-0.8-3.88-2.02c0.43-0.03,0.87-0.09,1.29-0.21c0.96-0.26,0.92-1.65-0.06-1.84c-1.77-0.36-3.16-1.65-3.68-3.31
	c0.48,0.12,0.96,0.18,1.45,0.19c0.96,0.01,1.32-1.22,0.54-1.74c-1.76-1.16-2.51-3.21-2.02-5.14c3.08,3.12,7.25,5,11.67,5.21
	c0.63,0.04,1.11-0.56,0.97-1.16c-0.6-2.6,0.85-4.42,2.41-5.26c1.54-0.83,4.02-1.09,5.92,0.9c0.56,0.59,2.47,0.62,3.44,0.39
	c-0.43,0.82-1.1,1.6-1.73,2.03c-0.27,0.19-0.42,0.5-0.4,0.82c0.2,4.15-1.34,8.27-4.24,11.32c-2.92,3.07-6.96,4.75-11.37,4.75
	c-1.76,0-3.48-0.29-5.1-0.84C6.93,24.71,8.77,23.88,10.34,22.67L10.34,22.67z"/>
</svg>
