<?xml version="1.0" encoding="utf-8"?>
<!-- Generator: Adobe Illustrator 23.0.1, SVG Export Plug-In . SVG Version: 6.00 Build 0)  -->
<svg version="1.1" id="Camada_1" xmlns="http://www.w3.org/2000/svg" xmlns:xlink="http://www.w3.org/1999/xlink" x="0px" y="0px"
	 viewBox="0 0 40 31" style="enable-background:new 0 0 40 31;" xml:space="preserve">
<style type="text/css">
	.st0{fill-rule:evenodd;clip-rule:evenodd;}
</style>
<g>
	<path d="M26.16,13.73l-8.75-4.79c-0.5-0.28-1.1-0.27-1.59,0.03c-0.49,0.29-0.79,0.81-0.79,1.38v9.49c0,0.57,0.29,1.09,0.78,1.38
		c0.26,0.15,0.54,0.23,0.82,0.23c0.26,0,0.52-0.06,0.76-0.19l8.75-4.71c0.52-0.28,0.84-0.82,0.85-1.41
		C27,14.55,26.68,14.01,26.16,13.73z M17.36,18.65v-7.1l6.54,3.58L17.36,18.65z"/>
	<path d="M39.58,7.58l0-0.02c-0.03-0.32-0.37-3.15-1.75-4.6c-1.59-1.7-3.4-1.9-4.27-2c-0.07-0.01-0.14-0.02-0.2-0.02L33.3,0.93
		C28.06,0.55,20.15,0.5,20.07,0.5l-0.01,0l-0.01,0c-0.08,0-7.99,0.05-13.27,0.43L6.72,0.94C6.66,0.95,6.6,0.96,6.53,0.96
		c-0.86,0.1-2.65,0.31-4.24,2.06C0.98,4.45,0.6,7.23,0.56,7.54l0,0.04c-0.01,0.13-0.29,3.29-0.29,6.46v2.96
		c0,3.17,0.28,6.33,0.29,6.46l0,0.02c0.03,0.31,0.37,3.1,1.74,4.54c1.5,1.64,3.39,1.86,4.41,1.97c0.16,0.02,0.3,0.03,0.39,0.05
		l0.09,0.01c3.02,0.29,12.5,0.43,12.9,0.44l0.01,0l0.01,0c0.08,0,7.99-0.05,13.22-0.43l0.07-0.01c0.07-0.01,0.14-0.02,0.22-0.03
		c0.85-0.09,2.63-0.28,4.21-2.01c1.31-1.43,1.69-4.2,1.73-4.51l0-0.04c0.01-0.13,0.29-3.29,0.29-6.46v-2.96
		C39.87,10.87,39.59,7.71,39.58,7.58z M37.55,17.01c0,2.93-0.26,5.96-0.28,6.23c-0.1,0.76-0.5,2.52-1.14,3.22
		c-0.99,1.09-2,1.19-2.74,1.27c-0.09,0.01-0.17,0.02-0.25,0.03c-5.06,0.37-12.67,0.42-13.02,0.42c-0.39-0.01-9.73-0.15-12.66-0.42
		c-0.15-0.02-0.31-0.04-0.48-0.06C6.1,27.6,4.92,27.46,4,26.46l-0.02-0.02c-0.63-0.65-1.02-2.3-1.12-3.18
		c-0.02-0.21-0.28-3.27-0.28-6.24v-2.96c0-2.93,0.26-5.95,0.28-6.23C2.98,6.91,3.39,5.26,4,4.59c1.02-1.12,2.09-1.24,2.8-1.32
		c0.07-0.01,0.13-0.02,0.19-0.02c5.14-0.37,12.8-0.42,13.08-0.42c0.27,0,7.94,0.06,13.03,0.42c0.06,0.01,0.13,0.02,0.2,0.02
		c0.73,0.08,1.83,0.21,2.84,1.29l0.01,0.01c0.63,0.65,1.02,2.33,1.12,3.23c0.02,0.2,0.28,3.26,0.28,6.24V17.01z"/>
</g>
</svg>
