<?xml version="1.0" encoding="utf-8"?>
<!-- Generator: Adobe Illustrator 23.0.1, SVG Export Plug-In . SVG Version: 6.00 Build 0)  -->
<svg version="1.1" id="Camada_1" xmlns="http://www.w3.org/2000/svg" xmlns:xlink="http://www.w3.org/1999/xlink" x="0px" y="0px"
	 viewBox="0 0 30 31" style="enable-background:new 0 0 30 31;" xml:space="preserve">
<style type="text/css">
	.st0{fill-rule:evenodd;clip-rule:evenodd;}
</style>
<path d="M14.94,0.5c-8.28,0-15,6.72-15,15s6.72,15,15,15s15-6.72,15-15S23.22,0.5,14.94,0.5z M21.47,22.27
	c-0.19,0.33-0.53,0.51-0.89,0.51c-0.18,0-0.35-0.05-0.52-0.14c-2.7-1.58-5.81-1.83-7.95-1.76c-2.37,0.07-4.11,0.54-4.12,0.54
	c-0.55,0.15-1.11-0.17-1.26-0.72c-0.15-0.55,0.17-1.11,0.72-1.26c0.08-0.02,1.95-0.53,4.55-0.61c1.53-0.05,3,0.06,4.38,0.32
	c1.74,0.33,3.33,0.91,4.72,1.72C21.59,21.15,21.75,21.78,21.47,22.27z M23.37,18.31c-0.23,0.39-0.63,0.6-1.05,0.6
	c-0.21,0-0.42-0.05-0.61-0.17c-3.19-1.87-6.88-2.17-9.41-2.09c-2.81,0.09-4.86,0.64-4.88,0.64c-0.65,0.18-1.32-0.2-1.49-0.85
	c-0.18-0.65,0.2-1.31,0.85-1.49c0.09-0.03,2.31-0.63,5.39-0.73c1.81-0.06,3.56,0.07,5.19,0.38c2.06,0.39,3.95,1.08,5.59,2.04
	C23.52,16.99,23.71,17.73,23.37,18.31z M24.54,14.71c-0.26,0-0.51-0.07-0.75-0.2c-7.59-4.44-17.44-1.8-17.54-1.77
	c-0.79,0.22-1.61-0.25-1.83-1.04c-0.22-0.79,0.25-1.61,1.04-1.83c0.11-0.03,2.83-0.77,6.61-0.89c2.22-0.07,4.37,0.08,6.36,0.46
	c2.53,0.48,4.84,1.32,6.86,2.5c0.71,0.42,0.95,1.33,0.53,2.04C25.56,14.44,25.06,14.71,24.54,14.71z"/>
</svg>
