<?xml version="1.0" encoding="utf-8"?>
<!-- Generator: Adobe Illustrator 23.0.1, SVG Export Plug-In . SVG Version: 6.00 Build 0)  -->
<svg version="1.1" id="Camada_1" xmlns="http://www.w3.org/2000/svg" xmlns:xlink="http://www.w3.org/1999/xlink" x="0px" y="0px"
	 viewBox="0 0 40 31" style="enable-background:new 0 0 40 31;" xml:space="preserve">
<style type="text/css">
	.st0{fill-rule:evenodd;clip-rule:evenodd;}
</style>
<g>
	<path id="path14_2_" d="M0,26.66H7.3v-2.21H0V26.66z"/>
	<path id="path16_2_" d="M0,23.79H7.3v-2.21H0V23.79z"/>
	<path id="path18_2_" d="M0,20.92H7.3v-2.21H0V20.92z"/>
	<path id="path20_2_" d="M0,18.04H7.3v-2.21H0V18.04z"/>
	<path id="path22_2_" d="M0,15.17H7.3v-2.21H0V15.17z"/>
	<path id="path24_2_" d="M8.18,26.66h7.29v-2.21H8.18V26.66z"/>
	<path id="path26_2_" d="M8.18,23.79h7.29v-2.21H8.18V23.79z"/>
	<path id="path28_2_" d="M8.18,20.92h7.29v-2.21H8.18V20.92z"/>
	<path id="path30_2_" d="M16.36,26.66h7.29v-2.21h-7.29V26.66z"/>
	<path id="path32_2_" d="M16.36,23.79h7.29v-2.21h-7.29V23.79z"/>
	<path id="path34_2_" d="M16.36,20.92h7.29v-2.21h-7.29V20.92z"/>
	<path id="path36_2_" d="M16.36,18.04h7.29v-2.21h-7.29V18.04z"/>
	<path id="path38_2_" d="M16.36,15.17h7.29v-2.21h-7.29V15.17z"/>
	<path id="path40_2_" d="M16.36,12.3h7.29v-2.21h-7.29V12.3z"/>
	<path id="path42_2_" d="M16.36,9.42h7.29V7.21h-7.29V9.42z"/>
	<path id="path44_2_" d="M24.53,26.66h7.29v-2.21h-7.29V26.66z"/>
	<path id="path46_2_" d="M24.53,23.79h7.29v-2.21h-7.29V23.79z"/>
	<path id="path48_2_" d="M24.53,20.92h7.29v-2.21h-7.29V20.92z"/>
	<path id="path50_2_" d="M24.53,18.04h7.29v-2.21h-7.29V18.04z"/>
	<path id="path52_2_" d="M24.53,15.17h7.29v-2.21h-7.29V15.17z"/>
	<path id="path54_2_" d="M32.71,26.66H40v-2.21h-7.29V26.66z"/>
	<path id="path56_2_" d="M32.71,23.79H40v-2.21h-7.29V23.79z"/>
	<path id="path58_2_" d="M32.71,20.91H40V18.7h-7.29V20.91z"/>
	<path id="path60_2_" d="M32.71,18.04H40v-2.21h-7.29V18.04z"/>
	<path id="path62_2_" d="M32.71,15.17H40v-2.21h-7.29V15.17z"/>
	<path id="path64_2_" d="M32.71,12.3H40v-2.21h-7.29V12.3z"/>
	<path id="path66_2_" d="M32.71,9.42H40V7.21h-7.29V9.42z"/>
	<path id="path68_2_" d="M32.71,6.55H40V4.34h-7.29V6.55z"/>
</g>
</svg>
