<?xml version="1.0" encoding="utf-8"?>
<!-- Generator: Adobe Illustrator 23.0.1, SVG Export Plug-In . SVG Version: 6.00 Build 0)  -->
<svg version="1.1" id="Camada_1" xmlns="http://www.w3.org/2000/svg" xmlns:xlink="http://www.w3.org/1999/xlink" x="0px" y="0px"
	 viewBox="0 0 30 31" style="enable-background:new 0 0 30 31;" xml:space="preserve">
<style type="text/css">
	.st0{fill-rule:evenodd;clip-rule:evenodd;}
</style>
<g>
	<path d="M23.01,16.43c-0.04-2.45,1.02-4.35,3.17-5.71c-1.21-1.76-3-2.75-5.37-2.98c-0.84-0.08-1.92,0.12-3.22,0.6
		c-1.41,0.52-2.2,0.78-2.38,0.78c-0.37,0-1.08-0.22-2.14-0.66c-1.05-0.44-1.95-0.66-2.7-0.66C9.12,7.82,7.95,8.17,6.88,8.84
		C5.8,9.51,4.94,10.43,4.3,11.59c-0.82,1.44-1.23,3.17-1.23,5.17c0,1.8,0.3,3.61,0.91,5.41c0.57,1.72,1.29,3.24,2.17,4.54
		c0.78,1.18,1.47,2.04,2.05,2.59c0.84,0.84,1.7,1.24,2.58,1.2c0.57-0.02,1.31-0.23,2.23-0.63c0.86-0.38,1.72-0.57,2.58-0.57
		c0.8,0,1.63,0.19,2.49,0.57c0.96,0.4,1.74,0.6,2.35,0.6c0.9-0.04,1.74-0.43,2.52-1.17c0.27-0.24,0.57-0.57,0.89-0.99
		c0.37-0.49,0.73-0.99,1.07-1.5c0.28-0.44,0.55-0.89,0.81-1.35c0.27-0.5,0.51-1.01,0.72-1.53c0.1-0.22,0.18-0.45,0.26-0.68
		c0.08-0.23,0.16-0.47,0.23-0.71c-0.72-0.32-1.38-0.77-1.96-1.35C23.68,19.9,23.03,18.31,23.01,16.43L23.01,16.43z"/>
	<path d="M19.31,5.31c1.04-1.3,1.55-2.71,1.55-4.21V0.8c0-0.1-0.01-0.2-0.03-0.3c-0.72,0.04-1.49,0.27-2.3,0.69
		c-0.81,0.42-1.48,0.95-2.01,1.59c-1.06,1.26-1.58,2.62-1.58,4.06v0.28c0,0.09,0.01,0.19,0.03,0.29
		C16.59,7.57,18.04,6.87,19.31,5.31L19.31,5.31z"/>
</g>
</svg>
