<?xml version="1.0" encoding="utf-8"?>
<!-- Generator: Adobe Illustrator 23.0.1, SVG Export Plug-In . SVG Version: 6.00 Build 0)  -->
<svg version="1.1" id="Camada_1" xmlns="http://www.w3.org/2000/svg" xmlns:xlink="http://www.w3.org/1999/xlink" x="0px" y="0px"
	 viewBox="0 0 30 31" style="enable-background:new 0 0 30 31;" xml:space="preserve">
<style type="text/css">
	.st0{fill-rule:evenodd;clip-rule:evenodd;}
</style>
<g>
	<path id="XMLID_10_" d="M15,0.5c-8.28,0-15,6.72-15,15c0,8.28,6.72,15,15,15s15-6.72,15-15S23.28,0.5,15,0.5L15,0.5z M15,2.16
		c7.37,0,13.34,5.98,13.34,13.34c0,7.37-5.98,13.34-13.34,13.34S1.67,22.87,1.67,15.5S7.63,2.16,15,2.16L15,2.16z"/>
	<path id="XMLID_7_" d="M21.25,5.49l-10.4,2.81h-0.01v4.23h0.01v7.57c-0.46-0.27-1.01-0.44-1.61-0.44c-1.54,0-2.79,1.07-2.79,2.39
		c0,1.32,1.24,2.38,2.79,2.38c1.54,0,2.86-1.06,2.8-2.38l-0.03-0.67l-0.07-9.15l8.22-2.22v8.35c-0.48-0.33-1.09-0.53-1.76-0.53
		c-1.54,0-2.79,1.07-2.79,2.39c0,1.32,1.24,2.38,2.79,2.38c1.54,0,2.84-1.06,2.84-2.38c0-0.01,0-0.02,0-0.04l0.01-10.46V5.98
		L21.25,5.49L21.25,5.49z"/>
</g>
</svg>
