<?xml version="1.0" encoding="utf-8"?>
<!-- Generator: Adobe Illustrator 23.0.1, SVG Export Plug-In . SVG Version: 6.00 Build 0)  -->
<svg version="1.1" id="Camada_1" xmlns="http://www.w3.org/2000/svg" xmlns:xlink="http://www.w3.org/1999/xlink" x="0px" y="0px"
	 viewBox="0 0 30 31" style="enable-background:new 0 0 30 31;" xml:space="preserve">
<style type="text/css">
	.st0{fill-rule:evenodd;clip-rule:evenodd;}
</style>
<g>
	<path d="M21.79,0.5H8.34c-4.56,0-8.28,3.71-8.28,8.28v13.44c0,4.57,3.71,8.28,8.28,8.28h13.44c4.57,0,8.28-3.71,8.28-8.28V8.78
		C30.07,4.21,26.35,0.5,21.79,0.5z M27.4,22.22c0,3.1-2.52,5.62-5.62,5.62H8.34c-3.1,0-5.62-2.52-5.62-5.62V8.78
		c0-3.1,2.52-5.62,5.62-5.62h13.44c3.1,0,5.62,2.52,5.62,5.62L27.4,22.22L27.4,22.22z"/>
	<path d="M15.07,7.77c-4.26,0-7.73,3.47-7.73,7.73c0,4.26,3.47,7.73,7.73,7.73s7.73-3.47,7.73-7.73
		C22.8,11.24,19.33,7.77,15.07,7.77z M15.07,20.57c-2.79,0-5.07-2.27-5.07-5.07c0-2.79,2.27-5.07,5.07-5.07s5.07,2.27,5.07,5.07
		C20.13,18.29,17.86,20.57,15.07,20.57z"/>
	<path d="M23.12,5.51c-0.51,0-1.02,0.21-1.38,0.57c-0.36,0.36-0.57,0.87-0.57,1.38c0,0.51,0.21,1.02,0.57,1.38
		c0.36,0.36,0.87,0.57,1.38,0.57c0.51,0,1.02-0.21,1.38-0.57c0.36-0.36,0.57-0.87,0.57-1.38c0-0.51-0.21-1.02-0.57-1.38
		C24.14,5.72,23.63,5.51,23.12,5.51z"/>
</g>
</svg>
