<?xml version="1.0" encoding="utf-8"?>
<!-- Generator: Adobe Illustrator 23.0.1, SVG Export Plug-In . SVG Version: 6.00 Build 0)  -->
<svg version="1.1" id="Camada_1" xmlns="http://www.w3.org/2000/svg" xmlns:xlink="http://www.w3.org/1999/xlink" x="0px" y="0px"
	 viewBox="0 0 30 31" style="enable-background:new 0 0 30 31;" xml:space="preserve">
<style type="text/css">
	.st0{fill-rule:evenodd;clip-rule:evenodd;}
</style>
<path class="st0" d="M25.63,4.81c-2.82-2.82-6.57-4.38-10.57-4.38c-8.23,0-14.93,6.7-14.94,14.94c0,2.63,0.69,5.2,1.99,7.47L0,30.57
	l7.92-2.08c2.18,1.19,4.64,1.82,7.14,1.82h0.01c8.23,0,14.93-6.7,14.94-14.94C30,11.38,28.45,7.63,25.63,4.81z M15.06,27.79
	L15.06,27.79c-2.23,0-4.42-0.6-6.32-1.73l-0.45-0.27l-4.7,1.23l1.25-4.58l-0.3-0.47c-1.24-1.98-1.9-4.26-1.9-6.61
	c0-6.85,5.57-12.41,12.42-12.41c3.32,0,6.43,1.29,8.78,3.64s3.63,5.47,3.63,8.78C27.48,22.22,21.91,27.79,15.06,27.79z M21.87,18.49
	c-0.37-0.19-2.21-1.09-2.55-1.21c-0.34-0.12-0.59-0.19-0.84,0.19c-0.25,0.37-0.96,1.21-1.18,1.46c-0.22,0.25-0.44,0.28-0.81,0.09
	c-0.37-0.19-1.58-0.58-3-1.85c-1.11-0.99-1.86-2.21-2.08-2.59c-0.22-0.37,0-0.56,0.16-0.76c0.4-0.5,0.81-1.03,0.93-1.28
	c0.12-0.25,0.06-0.47-0.03-0.65c-0.09-0.19-0.84-2.02-1.15-2.77c-0.3-0.73-0.61-0.63-0.84-0.64c-0.22-0.01-0.47-0.01-0.72-0.01
	c-0.25,0-0.65,0.09-1,0.47c-0.34,0.37-1.31,1.28-1.31,3.11S8.81,15.66,9,15.91c0.19,0.25,2.63,4.02,6.38,5.64
	c0.89,0.38,1.59,0.61,2.13,0.79c0.89,0.28,1.71,0.24,2.35,0.15c0.72-0.11,2.21-0.9,2.52-1.77c0.31-0.87,0.31-1.62,0.22-1.77
	C22.49,18.77,22.25,18.68,21.87,18.49z"/>
</svg>
